<svg width="100" height="37" viewBox="0 0 100 37" fill="none" xmlns="http://www.w3.org/2000/svg">
<path d="M0 30.1738V23.3476L14.5185 0.989305H23.2939V22.8529H27.0613V30.1738H23.2939V36.6043H15.4374V30.1738H0ZM15.9887 10.2888L8.27001 22.8529H15.9887V10.2888ZM42.12 37C39.884 37 37.8931 36.5878 36.1472 35.7634C34.4013 34.9389 33.023 33.8177 32.0122 32.3997C31.0014 30.9488 30.4348 29.3329 30.3123 27.5521H38.0769C38.1688 28.5085 38.5823 29.2834 39.3174 29.877C40.0525 30.4706 40.9561 30.7674 42.0281 30.7674C43.0083 30.7674 43.7587 30.5695 44.2794 30.1738C44.8307 29.7451 45.1064 29.201 45.1064 28.5414C45.1064 27.75 44.7235 27.1729 43.9578 26.8102C43.192 26.4144 41.9515 25.9857 40.2363 25.5241C38.3985 25.0624 36.867 24.5842 35.6418 24.0896C34.4166 23.5619 33.3599 22.754 32.4717 21.6658C31.5834 20.5446 31.1393 19.0441 31.1393 17.1644C31.1393 15.5816 31.5375 14.1471 32.3338 12.861C33.1608 11.5419 34.3554 10.5031 35.9175 9.74465C37.5102 8.98619 39.394 8.60695 41.5687 8.60695C44.7848 8.60695 47.3117 9.46435 49.1495 11.1791C51.0179 12.8939 52.09 15.1693 52.3656 18.0053H45.1064C44.9839 17.049 44.5857 16.2906 43.9118 15.7299C43.2686 15.1693 42.411 14.889 41.3389 14.889C40.4201 14.889 39.7156 15.0869 39.2255 15.4826C38.7354 15.8454 38.4904 16.3565 38.4904 17.016C38.4904 17.8075 38.8733 18.4011 39.639 18.7968C40.4354 19.1925 41.6606 19.5882 43.3146 19.984C45.2136 20.5116 46.7604 21.0392 47.955 21.5668C49.1495 22.0615 50.1909 22.8859 51.0792 24.0401C51.9981 25.1613 52.4728 26.6783 52.5035 28.5909C52.5035 30.2068 52.0746 31.6578 51.217 32.9439C50.39 34.197 49.1801 35.1863 47.5874 35.9118C46.0253 36.6373 44.2028 37 42.12 37ZM72.9771 36.6043L65.1665 25.0294V36.6043H57.31V0H65.1665V20.2313L72.9312 9.00267H82.6254L71.9663 22.8529L82.7173 36.6043H72.9771ZM100 29.4318V36.6043H96.0028C93.1543 36.6043 90.9336 35.8623 89.3409 34.3783C87.7481 32.8614 86.9518 30.4046 86.9518 27.008V16.0267H83.8275V9.00267H86.9518V2.2754H94.8083V9.00267H99.954V16.0267H94.8083V27.107C94.8083 27.9314 94.992 28.525 95.3596 28.8877C95.7272 29.2504 96.3398 29.4318 97.1974 29.4318H100Z" fill="white"/>
</svg>
