<svg width="32" height="33" viewBox="0 0 32 33" fill="none" xmlns="http://www.w3.org/2000/svg">
<path fill-rule="evenodd" clip-rule="evenodd" d="M31.3312 8.47616C30.9632 7.07206 29.879 5.96593 28.5022 5.59059C26.0067 4.90869 15.9999 4.90869 15.9999 4.90869C15.9999 4.90869 5.9933 4.90869 3.49778 5.59059C2.12095 5.96593 1.03677 7.07206 0.66879 8.47616C0 11.0219 0 16.3325 0 16.3325C0 16.3325 0 21.6434 0.66879 24.1888C1.03677 25.5929 2.12095 26.6993 3.49778 27.0744C5.9933 27.7566 15.9999 27.7566 15.9999 27.7566C15.9999 27.7566 26.0067 27.7566 28.5022 27.0744C29.879 26.6993 30.9632 25.5929 31.3312 24.1888C32 21.6434 32 16.3325 32 16.3325C32 16.3325 32 11.0219 31.3312 8.47616Z" fill="white"/>
<path fill-rule="evenodd" clip-rule="evenodd" d="M12.8 21.2287L21.1134 16.3329L12.8 11.4365V21.2287Z" fill="#060606"/>
</svg>
