<svg width="196" height="34" viewBox="0 0 196 34" fill="none" xmlns="http://www.w3.org/2000/svg">
<path d="M21.646 32.9536C20.4725 32.9812 19.31 32.7499 18.2657 32.281C17.227 31.8154 16.341 31.126 15.6914 30.2779C13.6461 31.921 10.9963 32.8701 8.22076 32.9536C3.2333 32.9536 0.530049 29.9236 1.44313 25.5798C2.1372 22.3136 5.24248 19.0404 6.11056 16.4127C4.43041 15.531 1.93618 14.9169 0.767071 16.7189L0 16.3174C0.612056 14.3422 2.09119 13.0284 4.22839 13.0284C6.36559 13.0284 7.94573 14.1218 9.98292 13.115H11.6081C10.741 17.0495 8.54879 20.1967 7.37968 25.7057C6.66761 29.0821 7.99173 30.6164 10.2299 30.6164C11.8833 30.4386 13.4043 29.7353 14.5033 28.6404C13.6108 26.7192 13.1608 24.6628 13.1792 22.5891C13.1792 17.8044 15.7274 12.7608 20.0018 12.7608C22.194 12.7608 23.8192 14.0746 23.8192 17.1912C23.8192 20.307 21.628 25.131 18.8327 28.1602C18.9837 28.8818 19.4228 29.5352 20.0728 30.0085C20.7229 30.4808 21.544 30.7432 22.3951 30.7502C26.4684 30.7502 29.3177 25.4844 29.3177 20.614C29.3177 15.7435 26.8705 15.9631 27.0805 14.3186C27.0994 14.1131 27.1645 13.9129 27.2721 13.7295C27.3797 13.5461 27.5277 13.383 27.7075 13.2497C28.0716 12.9786 28.5456 12.843 29.0257 12.871C30.2958 12.871 31.9659 14.2557 31.9659 19.8748C31.9659 27.0353 27.5455 32.9536 21.645 32.9536H21.646ZM20.7239 15.2318C19.4538 15.2318 18.2297 19.2687 18.0747 23.4393C18.0154 24.3312 18.0338 25.2257 18.1297 26.1151C20.045 23.3869 21.2138 20.3087 21.545 17.1204C21.536 15.7033 21.235 15.231 20.7229 15.231L20.7239 15.2318ZM40.3327 32.7726C39.8001 32.82 39.262 32.766 38.7556 32.6143C38.251 32.4634 37.7902 32.2181 37.4054 31.8952C37.0231 31.5742 36.7267 31.1832 36.5374 30.7502C36.3484 30.3191 36.2719 29.8565 36.3133 29.3962C36.3133 27.4683 39.2186 17.8595 39.2186 16.278C39.2186 15.531 39.0176 15.0901 38.2505 15.0901C37.3947 15.2103 36.5976 15.5465 35.9573 16.0576V14.6965C37.287 13.6415 39.0033 13.0361 40.7977 12.9891C41.3337 12.9474 41.8736 13.007 42.3809 13.164C42.8869 13.3215 43.347 13.5707 43.73 13.897C44.1121 14.2224 44.4081 14.616 44.5961 15.0516C44.7831 15.4855 44.8591 15.95 44.8161 16.4118C44.8161 18.3397 41.9129 27.9091 41.9129 29.4828C41.9129 30.2306 42.1129 30.6715 42.8809 30.6715C43.7252 30.5487 44.5166 30.2307 45.1731 29.7504V31.0643C43.8486 32.1264 42.1291 32.7332 40.3327 32.7726ZM43.894 5.00113C44.2921 4.99063 44.6881 5.05361 45.0551 5.18832C45.4212 5.32302 45.7502 5.52421 46.0162 5.77875C46.2833 6.03135 46.483 6.33261 46.6009 6.66084C46.7189 6.98906 46.7521 7.33608 46.6983 7.67689C46.6001 8.40457 46.2014 9.07584 45.5772 9.56453C44.9476 10.0577 44.1369 10.3373 43.292 10.3527C42.8944 10.3637 42.4988 10.2998 42.1319 10.1655C41.7661 10.0318 41.4379 9.83039 41.1698 9.57503C40.9027 9.32243 40.703 9.02117 40.5851 8.69294C40.4671 8.36472 40.4339 8.0177 40.4877 7.67689C40.586 6.94923 40.9847 6.27799 41.6088 5.78925C42.2386 5.29647 43.0492 5.01719 43.894 5.002V5.00113ZM55.2011 28.6492C54.946 29.837 55.1011 30.6636 56.0692 30.6636C56.9165 30.5495 57.7104 30.2305 58.3614 29.7425L58.4524 31.0643C57.1229 32.1195 55.4065 32.7253 53.6119 32.7726C50.4516 32.7726 49.2285 30.7975 49.6946 28.3421L52.7999 13.115C53.8319 8.03115 53.4749 7.36199 50.3146 7.36199L50.5156 6.13476L60.0415 5.04836L55.2011 28.6483V28.6492ZM81.9895 28.6089C81.7335 29.7977 81.8335 30.6715 82.8566 30.6715C83.7058 30.5327 84.4974 30.1985 85.1498 29.7032V31.0643C83.8289 32.1314 82.1072 32.739 80.3094 32.7726C79.4 32.8302 78.4984 32.5916 77.7782 32.1025C77.0636 31.6183 76.5843 30.9161 76.436 30.1362C75.6694 31.0096 74.6854 31.7188 73.5588 32.2101C72.4263 32.7047 71.181 32.9696 69.9154 32.9851C63.8599 32.9851 61.3116 28.3815 62.4807 22.8489C63.6498 17.3172 69.1014 12.8001 75.2669 12.8001C76.7245 12.7734 78.1663 13.0682 79.4593 13.6573L79.6143 12.9576C80.8204 7.54306 80.2634 7.36199 77.1031 7.36199L77.2581 6.13476L86.829 5.04836L81.9885 28.6098L81.9895 28.6089ZM75.4219 14.7831C71.9056 14.7831 69.5684 18.3791 68.6453 22.8095C67.6772 27.4604 68.2893 30.6794 71.5956 30.6794C73.8328 30.6794 76.381 28.3176 77.1481 24.7138L79.0303 15.5861C77.942 15.018 76.6883 14.739 75.4219 14.7831ZM98.082 32.9921C91.0034 32.9921 89.0672 28.601 89.9353 24.391L92.2455 13.115C93.3146 8.02415 92.9585 7.32263 89.7983 7.32263L89.9983 6.0954L99.5521 5.04836L97.616 14.6099C99.11 13.4937 100.995 12.8579 102.959 12.808C109.124 12.808 112.019 17.325 110.905 22.8568C109.791 28.3894 104.12 32.993 98.082 32.993V32.9921ZM101.388 14.8933C100.362 14.9109 99.3667 15.2088 98.5431 15.7453C97.7256 16.2776 97.1228 17.0236 96.8219 17.8752L95.3968 24.9578C94.5287 29.1679 96.2648 30.8832 98.457 30.8832C101.662 30.8832 103.654 27.8147 104.722 22.7702C105.672 18.2531 104.805 14.9169 101.379 14.9169L101.388 14.8933ZM120.559 25.4066C120.559 28.783 122.44 30.5849 126.039 30.5849C127.866 30.5849 130.523 29.4915 132.204 28.043L132.916 29.4434C131.705 30.5482 130.254 31.4308 128.649 32.0396C127.037 32.6508 125.302 32.9772 123.545 33C118.203 33 114.586 29.5772 114.586 24.9263C114.586 18.0406 121.207 12.8159 127.574 12.8159C131.446 12.8159 133.628 14.6571 133.628 16.8055C133.583 20.1416 129.912 23.8881 120.559 25.4066ZM127.126 14.8303C124.221 14.8303 121.427 18.4735 120.659 23.6912C126.514 22.4631 129.007 19.0404 129.062 16.8448C129.053 15.6176 128.386 14.8303 127.117 14.8303H127.126ZM154.407 32.7726C153.498 32.8302 152.596 32.5915 151.876 32.1025C151.162 31.6182 150.683 30.916 150.535 30.1362C149.796 31.0092 148.836 31.7199 147.729 32.2119C146.617 32.707 145.389 32.9713 144.141 32.9843C138.187 32.9843 135.638 28.3815 136.835 22.8489C138.031 17.3172 143.392 12.8071 149.576 12.8071C150.886 12.8013 152.184 13.0265 153.393 13.4693H159.202L156.087 28.6089C155.831 29.7977 155.932 30.6715 156.955 30.6715C157.804 30.5325 158.595 30.1983 159.248 29.7032V31.0643C157.927 32.1313 156.205 32.7389 154.407 32.7726ZM149.722 14.7831C146.305 14.7831 143.913 18.3791 142.999 22.8095C142.031 27.4604 142.698 30.6794 145.739 30.6794C148.078 30.6794 150.58 28.224 151.293 24.7138L153.174 15.5861C152.147 15.018 150.945 14.7378 149.731 14.7831H149.722ZM177.021 17.9855C175.642 17.9855 175.285 17.0652 174.884 16.0969C174.747 15.6075 174.418 15.1754 173.955 14.8758C173.488 14.5737 172.916 14.4214 172.336 14.4446C171.582 14.4097 170.84 14.6197 170.253 15.0342C169.67 15.4445 169.285 16.032 169.176 16.6795C169.021 17.8682 170.043 18.875 171.979 20.3227L174.573 22.164C175.537 22.7918 176.286 23.639 176.737 24.6132C177.186 25.5841 177.319 26.6425 177.121 27.673C176.463 30.9619 173.304 32.9843 169.075 32.9843C163.978 32.9843 160.727 30.3951 161.083 28.6404C161.166 28.1794 161.436 27.7569 161.846 27.4525C162.256 27.1464 162.779 26.9767 163.321 26.9723C164.645 26.9723 165.147 27.8462 165.558 28.9868C165.822 29.6428 166.329 30.2044 167.001 30.5858C167.676 30.9675 168.474 31.1465 169.276 31.0957C170.067 31.1286 170.845 30.905 171.46 30.4677C172.069 30.0341 172.47 29.4158 172.582 28.7357C172.783 27.1613 171.669 26.1938 169.578 24.5642L167.029 22.6363C166.134 22.0474 165.433 21.2602 165.001 20.3559C164.571 19.4562 164.426 18.4718 164.581 17.5061C165.038 15.3972 167.321 12.7844 172.573 12.7844C176.646 12.7844 179.194 14.7595 178.966 16.341C178.941 16.7772 178.726 17.1885 178.366 17.4912C178.006 17.7956 177.525 17.9723 177.021 17.9855ZM195.662 15.2318H190.721L188.328 26.8936C187.816 29.3096 188.227 30.4038 189.752 30.4038C190.566 30.4038 191.844 30.0102 193.671 28.3894L193.771 30.0968C192.941 30.9432 191.913 31.6235 190.756 32.0912C189.593 32.5615 188.33 32.8096 187.049 32.8189C183.588 32.8189 181.853 30.7109 182.675 26.807L185.067 15.2318H181.204L181.506 13.4299H185.405L186.428 8.21222H192.128L191.059 13.429H196L195.662 15.231V15.2318Z" fill="#9C9C9C"/>
</svg>
