<svg width="16" height="16" viewBox="0 0 16 16" fill="none" xmlns="http://www.w3.org/2000/svg">
<path d="M13.717 10.717L11.6407 10.475C11.3967 10.4458 11.1494 10.4734 10.9174 10.5557C10.6853 10.638 10.4746 10.7728 10.301 10.95L8.79647 12.483C6.47665 11.2799 4.59105 9.3573 3.41106 6.992L4.92243 5.45C5.27453 5.092 5.44616 4.592 5.3883 4.083L5.15193 1.983C5.10548 1.57641 4.91401 1.20143 4.61398 0.929441C4.31395 0.657456 3.9263 0.507456 3.52483 0.507997H2.11155C1.18766 0.507997 0.419719 1.292 0.476603 2.233C0.910103 9.35 6.49166 15.033 13.4639 15.475C14.3869 15.533 15.1558 14.75 15.1558 13.808V12.367C15.1578 11.9594 15.012 11.5655 14.7464 11.2609C14.4808 10.9564 14.1142 10.7626 13.717 10.717Z" fill="url(#paint0_linear_131_465)"/>
<defs>
<linearGradient id="paint0_linear_131_465" x1="7.81472" y1="0.507996" x2="7.81472" y2="15.478" gradientUnits="userSpaceOnUse">
<stop stop-color="#00FF66"/>
<stop offset="1" stop-color="#12D25F"/>
</linearGradient>
</defs>
</svg>
