<svg width="17" height="17" viewBox="0 0 17 17" fill="none" xmlns="http://www.w3.org/2000/svg">
<path d="M13.4586 4.95879C13.4586 4.17998 12.8211 3.54248 12.0423 3.54248H10.626C10.2361 3.54248 9.91732 3.86123 9.91732 4.25011C9.91732 4.64004 10.2361 4.95879 10.626 4.95879H12.0423V6.83623L9.57732 9.91748H7.08363V7.08379C7.08363 6.69386 6.76488 6.37511 6.37601 6.37511H4.24995C3.87778 6.37497 3.50924 6.44817 3.16538 6.59052C2.82152 6.73288 2.50908 6.9416 2.24592 7.20476C1.98276 7.46792 1.77403 7.78036 1.63168 8.12422C1.48932 8.46808 1.41612 8.83663 1.41626 9.20879V10.6251C1.41626 11.015 1.73501 11.3338 2.12495 11.3338H2.83257C2.83257 12.51 3.78245 13.4588 4.95757 13.4588C6.13376 13.4588 7.08257 12.51 7.08257 11.3338H9.57626C10.0087 11.3338 10.4124 11.1351 10.6813 10.8025L13.1463 7.72129C13.3513 7.46629 13.4576 7.15392 13.4576 6.83623V4.95879H13.4586ZM4.95863 12.0425C4.77104 12.0416 4.59138 11.9667 4.45882 11.8339C4.32627 11.7012 4.25157 11.5214 4.25101 11.3338H5.66732C5.66732 11.7237 5.34857 12.0425 4.95863 12.0425Z" fill="#6F6F6F"/>
<path d="M4.24995 4.25H6.37495C6.76488 4.25 7.08363 4.56875 7.08363 4.95869C7.08363 5.34756 6.76488 5.66631 6.37601 5.66631H4.24995C4.06235 5.66575 3.88258 5.59105 3.74982 5.4585C3.61707 5.32595 3.5421 5.14629 3.54126 4.95869C3.54126 4.56875 3.86001 4.25 4.24995 4.25ZM13.4597 9.20763C12.2835 9.20763 11.3347 10.1575 11.3347 11.3326C11.3347 12.5088 12.2835 13.4576 13.4597 13.4576C14.6359 13.4576 15.5847 12.5088 15.5847 11.3326C15.5847 10.1575 14.6359 9.20763 13.4597 9.20763ZM13.4597 12.0413C13.2719 12.0408 13.092 11.9659 12.9592 11.8331C12.8264 11.7003 12.7516 11.5204 12.751 11.3326C12.751 10.9438 13.0698 10.625 13.4597 10.625C13.8496 10.625 14.1684 10.9438 14.1684 11.3326C14.1684 11.7226 13.8496 12.0413 13.4597 12.0413Z" fill="#6F6F6F"/>
</svg>
