<svg width="23" height="29" viewBox="0 0 23 29" fill="none" xmlns="http://www.w3.org/2000/svg">
<path d="M19.75 9.66671H18.375V7.00004C18.375 3.32004 15.295 0.333374 11.5 0.333374C7.705 0.333374 4.625 3.32004 4.625 7.00004V9.66671H3.25C1.7375 9.66671 0.5 10.8667 0.5 12.3334V25.6667C0.5 27.1334 1.7375 28.3334 3.25 28.3334H19.75C21.2625 28.3334 22.5 27.1334 22.5 25.6667V12.3334C22.5 10.8667 21.2625 9.66671 19.75 9.66671ZM11.5 21.6667C9.9875 21.6667 8.75 20.4667 8.75 19C8.75 17.5334 9.9875 16.3334 11.5 16.3334C13.0125 16.3334 14.25 17.5334 14.25 19C14.25 20.4667 13.0125 21.6667 11.5 21.6667ZM7.375 9.66671V7.00004C7.375 4.78671 9.2175 3.00004 11.5 3.00004C13.7825 3.00004 15.625 4.78671 15.625 7.00004V9.66671H7.375Z" fill="url(#paint0_linear_120_261)"/>
<defs>
<linearGradient id="paint0_linear_120_261" x1="11.5" y1="0.333374" x2="11.5" y2="28.3334" gradientUnits="userSpaceOnUse">
<stop stop-color="#00FF66"/>
<stop offset="1" stop-color="#12D25F"/>
</linearGradient>
</defs>
</svg>
