<svg width="32" height="32" viewBox="0 0 32 32" fill="none" xmlns="http://www.w3.org/2000/svg">
<path d="M8.31893 10.7333C6.51876 12.4792 5.50517 14.8456 5.50002 17.3145C5.49487 19.7834 6.49856 22.1537 8.29143 23.9067C10.3127 19.3733 13.9152 15.5867 18.4114 13.3333C14.5306 16.5176 11.9109 20.9101 11.0002 25.76C14.5752 27.4 18.9752 26.8 21.9314 23.9333C26.0427 19.9467 27.1977 9.08 27.4452 6.09333C27.4538 5.99843 27.4409 5.90286 27.4073 5.81332C27.3737 5.72379 27.3203 5.64249 27.2508 5.57512C27.1814 5.50776 27.0975 5.45597 27.0052 5.42342C26.9129 5.39086 26.8143 5.37831 26.7164 5.38667C23.6364 5.62667 12.4302 6.74667 8.31893 10.7333Z" fill="url(#paint0_linear_120_218)"/>
<defs>
<linearGradient id="paint0_linear_120_218" x1="16.4739" y1="5.38416" x2="16.4739" y2="26.6592" gradientUnits="userSpaceOnUse">
<stop stop-color="#00FF66"/>
<stop offset="1" stop-color="#12D25F"/>
</linearGradient>
</defs>
</svg>
