<svg width="152" height="152" viewBox="0 0 152 152" fill="none" xmlns="http://www.w3.org/2000/svg">
<path d="M117.381 54.2717L101.276 50.7764L87.1723 36.6262C85.1896 34.2464 82.2425 32.699 78.8998 32.699H71.616C70.2209 32.699 68.8994 32.9842 67.6742 33.4642L53.3828 29.9578L41.13 15.9738C39.023 13.5601 35.3702 13.3372 32.9706 15.4318C30.571 17.5382 30.3278 21.1913 32.4341 23.5912L45.8844 38.9472C46.6632 39.8422 47.7022 40.4718 48.8541 40.7542L60.8023 43.6844V82.5527L49.4923 119.546C48.5547 122.601 50.2775 125.833 53.3323 126.768C56.3309 127.691 59.5996 126.02 60.548 122.928L71.0114 88.7127H80.2662L83.6884 98.7919L78.3294 119.809C77.5389 122.903 79.4079 126.05 82.5024 126.841C85.5734 127.617 88.7361 125.777 89.5321 122.666L95.3142 99.986C95.5904 98.9017 95.5454 97.7588 95.1902 96.7001L89.7128 80.5705V55.5537L94.2918 60.1469C95.0771 60.9346 96.0714 61.4797 97.1606 61.714L114.931 65.5706C118.025 66.2486 121.13 64.2831 121.808 61.1461C122.485 58.0266 120.503 54.9466 117.381 54.2717Z" fill="#1CDC69"/>
<path d="M75.2777 27.7078C82.929 27.7078 89.1347 21.5049 89.1347 13.8539C89.1347 6.20288 82.9293 0 75.2777 0C67.627 0 61.4216 6.20288 61.4216 13.8539C61.4216 21.5049 67.6273 27.7078 75.2777 27.7078Z" fill="#1CDC69"/>
<path d="M112.749 124.975L106.961 132.449H43.5897L37.8024 124.975C36.345 123.087 33.6226 122.736 31.7204 124.199C29.8289 125.667 29.4783 128.389 30.9471 130.283L38.0327 139.439C38.8516 140.501 40.1169 141.121 41.4605 141.121H46.3783C45.6387 142.24 45.097 143.504 45.097 144.95C45.097 148.843 48.2532 152 52.1493 152C56.0398 152 59.2022 148.843 59.2022 144.95C59.2022 143.504 58.6598 142.24 57.9144 141.121H92.6353C91.8959 142.24 91.3533 143.504 91.3533 144.95C91.3533 148.843 94.5095 152 98.4059 152C102.296 152 105.458 148.843 105.458 144.95C105.458 143.504 104.916 142.24 104.171 141.121H109.089C110.433 141.121 111.698 140.5 112.516 139.439L119.603 130.283C121.071 128.389 120.721 125.667 118.829 124.199C116.933 122.733 114.211 123.081 112.749 124.975Z" fill="#1CDC69"/>
</svg>
