<svg width="31" height="30" viewBox="0 0 31 30" fill="none" xmlns="http://www.w3.org/2000/svg">
<path d="M15.5 9.66659C12.4613 9.66659 10 12.0533 10 14.9999C10 17.9466 12.4613 20.3333 15.5 20.3333C18.5387 20.3333 21 17.9466 21 14.9999C21 12.0533 18.5387 9.66659 15.5 9.66659ZM27.7925 13.6666C27.481 10.9627 26.2307 8.44197 24.2468 6.51818C22.2629 4.59439 19.6633 3.38193 16.875 3.07992V1.66659C16.875 0.933252 16.2563 0.333252 15.5 0.333252C14.7437 0.333252 14.125 0.933252 14.125 1.66659V3.07992C11.3367 3.38193 8.73711 4.59439 6.7532 6.51818C4.76929 8.44197 3.51895 10.9627 3.2075 13.6666H1.75C0.99375 13.6666 0.375 14.2666 0.375 14.9999C0.375 15.7333 0.99375 16.3333 1.75 16.3333H3.2075C3.51895 19.0371 4.76929 21.5579 6.7532 23.4817C8.73711 25.4055 11.3367 26.6179 14.125 26.9199V28.3333C14.125 29.0666 14.7437 29.6666 15.5 29.6666C16.2563 29.6666 16.875 29.0666 16.875 28.3333V26.9199C19.6633 26.6179 22.2629 25.4055 24.2468 23.4817C26.2307 21.5579 27.481 19.0371 27.7925 16.3333H29.25C30.0063 16.3333 30.625 15.7333 30.625 14.9999C30.625 14.2666 30.0063 13.6666 29.25 13.6666H27.7925ZM15.5 24.3333C10.1788 24.3333 5.875 20.1599 5.875 14.9999C5.875 9.83992 10.1788 5.66659 15.5 5.66659C20.8212 5.66659 25.125 9.83992 25.125 14.9999C25.125 20.1599 20.8212 24.3333 15.5 24.3333Z" fill="url(#paint0_linear_120_259)"/>
<defs>
<linearGradient id="paint0_linear_120_259" x1="15.5" y1="0.333252" x2="15.5" y2="29.6666" gradientUnits="userSpaceOnUse">
<stop stop-color="#00FF66"/>
<stop offset="1" stop-color="#12D25F"/>
</linearGradient>
</defs>
</svg>
