<svg width="98" height="98" viewBox="0 0 98 98" fill="none" xmlns="http://www.w3.org/2000/svg">
<g clip-path="url(#clip0_27_27)">
<path d="M45.9473 79.197C45.9481 79.1961 45.9497 79.1957 45.9497 79.1957C45.9516 79.1935 45.9518 79.192 45.9531 79.1911L45.9473 79.197Z" fill="#1CDC69"/>
<path d="M18.8059 52.0498L18.8035 52.0532L18.8093 52.0472L18.8059 52.0498Z" fill="#1CDC69"/>
<path d="M92.633 41.2446C100.427 31.2138 99.7385 16.6821 90.5283 7.47139C81.3178 -1.73907 66.7862 -2.42488 56.7554 5.36707L54.3353 2.94693C53.1357 1.74739 51.0113 1.74739 49.8116 2.94693L36.2397 16.5199C34.9902 17.7694 34.9902 19.7949 36.2397 21.0436L38.5021 23.3061L23.3297 38.4784L21.0673 36.216C19.8178 34.9665 17.7933 34.9665 16.5436 36.216L2.97177 49.7879C1.72227 51.0364 1.72227 53.0628 2.97177 54.3116L5.39 56.7298C1.90775 61.198 0 66.6509 0 72.4077C0 79.2441 2.6615 85.6704 7.49547 90.5042C12.3294 95.3382 18.7555 97.9997 25.592 97.9997C31.3487 97.9997 36.8017 96.0919 41.2701 92.6093L43.6883 95.0275C44.3132 95.6524 45.1317 95.9648 45.9499 95.9648C46.7682 95.9648 47.587 95.6524 48.2116 95.0275L61.7834 81.4557C63.0329 80.2071 63.0329 78.1807 61.7834 76.932L59.521 74.6695L74.6934 59.4971L76.9558 61.7596C77.5808 62.3845 78.3992 62.6969 79.2175 62.6969C80.0358 62.6969 80.8546 62.3845 81.4792 61.7596L95.0522 48.1877C95.652 47.5878 95.9895 46.7746 95.9895 45.9261C95.9895 45.0776 95.652 44.2641 95.0522 43.6644L92.633 41.2446ZM52.0734 9.73343L56.5981 14.2569L47.5497 23.3053L45.2888 21.0452L45.2877 21.0436L45.2861 21.0425L43.0249 18.7816L52.0734 9.73343ZM9.75732 52.0495L18.8057 43.0012L23.3303 47.5258L14.282 56.5742L9.75732 52.0495ZM39.1644 76.932L21.0679 58.8355L25.5916 54.3118L43.6881 72.4083L39.1644 76.932ZM45.9503 88.2423L41.4257 83.7177L50.474 74.6693L54.9987 79.194L45.9503 88.2423ZM72.4327 43.6638L54.336 25.5671L58.8593 21.0432L76.9566 39.1405L72.4327 43.6638ZM79.2181 54.9746L76.9574 52.7133L76.9562 52.7118L76.9547 52.7106L74.6946 50.4498L83.7429 41.4014L88.2664 45.9261L79.2181 54.9746Z" fill="#1CDC69"/>
</g>
<defs>
<clipPath id="clip0_27_27">
<rect width="98" height="98" fill="white"/>
</clipPath>
</defs>
</svg>
