<svg width="18" height="18" viewBox="0 0 18 18" fill="none" xmlns="http://www.w3.org/2000/svg">
<g clip-path="url(#clip0_113_163)">
<path d="M16.5004 4.50011C16.0886 4.50011 15.7511 4.16261 15.7511 3.75086V3.00049C15.75 2.58761 15.4125 2.25011 15.0007 2.25011H14.2504C13.8386 2.25011 13.5011 1.91261 13.5011 1.50086C13.5011 1.08799 13.8386 0.750488 14.2504 0.750488H15.0007C16.2461 0.750488 17.2507 1.75511 17.2507 3.00049V3.75086C17.2507 4.16261 16.9132 4.50011 16.5004 4.50011ZM14.2504 15.7501H15.0007C15.1994 15.7495 15.3897 15.6704 15.5303 15.5301C15.6708 15.3897 15.7502 15.1995 15.7511 15.0009V14.2505C15.7511 13.8376 16.0886 13.5012 16.5004 13.5012C16.9132 13.5012 17.2507 13.8387 17.2507 14.2505V15.0009C17.2507 16.2462 16.2461 17.2509 15.0007 17.2509H14.2504C13.8386 17.2509 13.5011 16.9134 13.5011 16.5005C13.5011 16.0876 13.8386 15.7512 14.2504 15.7512V15.7501ZM3.00036 0.750488H3.74961C4.16248 0.750488 4.49998 1.08799 4.49998 1.50086C4.49998 1.91261 4.16248 2.25011 3.74961 2.25011H3.00036C2.58748 2.25011 2.24998 2.58761 2.24998 3.00049V3.75086C2.24998 4.16261 1.91248 4.50011 1.49961 4.50011C1.08786 4.50011 0.750357 4.16261 0.750357 3.75086V3.00049C0.750357 1.75511 1.75498 0.750488 3.00036 0.750488ZM1.49961 13.5001C1.91248 13.5001 2.24998 13.8376 2.24998 14.2505V15.0009C2.24998 15.4137 2.58748 15.7512 3.00036 15.7512H3.74961C4.16248 15.7512 4.49998 16.0887 4.49998 16.5005C4.49998 16.9134 4.16248 17.2509 3.74961 17.2509H3.00036C1.75498 17.2509 0.750357 16.2462 0.750357 15.0009V14.2505C0.750357 13.8376 1.08786 13.5012 1.49961 13.5012V13.5001ZM3.75186 11.1534V6.84799C3.75186 6.30799 4.03648 5.81299 4.50111 5.55086L8.25186 3.39086C8.47922 3.25746 8.73806 3.18712 9.00167 3.18712C9.26528 3.18712 9.52412 3.25746 9.75148 3.39086L13.5011 5.54186C13.9669 5.81186 14.2515 6.30686 14.2515 6.84686V11.1522C14.2515 11.6922 13.9669 12.1872 13.5011 12.4494L9.75148 14.6094C9.52412 14.7428 9.26528 14.8131 9.00167 14.8131C8.73806 14.8131 8.47922 14.7428 8.25186 14.6094L4.49998 12.4505C4.27134 12.3201 4.08147 12.1312 3.94982 11.9033C3.81817 11.6754 3.74946 11.4166 3.75073 11.1534H3.75186ZM9.75148 12.878L12.7519 11.1534V7.68049L9.75148 9.42761V12.878ZM9.00111 8.13049L11.9711 6.39799L9.00111 4.68799L6.03111 6.39799L9.00111 8.13049ZM5.25148 11.1534L8.25186 12.878V9.42761L5.25148 7.68049V11.1534Z" fill="#6F6F6F"/>
</g>
<defs>
<clipPath id="clip0_113_163">
<rect width="18" height="18" fill="white" transform="matrix(-1 0 0 1 18 0)"/>
</clipPath>
</defs>
</svg>
