<svg width="32" height="32" viewBox="0 0 32 32" fill="none" xmlns="http://www.w3.org/2000/svg">
<g clip-path="url(#clip0_120_191)">
<path d="M23.375 22.6533C21.5187 22.6533 20.35 23.2133 19.3188 23.72C18.425 24.16 17.6962 24.52 16.5 24.52C15.2625 24.52 14.575 24.1867 13.6812 23.72C12.65 23.2133 11.5225 22.6533 9.625 22.6533C7.7275 22.6533 6.6 23.2133 5.56875 23.72C4.9775 24.0133 4.455 24.2667 3.8225 24.4133C3.20375 24.5467 2.75 25.0267 2.75 25.6267V25.76C2.75 26.56 3.52 27.1333 4.3175 26.9733C5.335 26.7733 6.105 26.4 6.80625 26.0533C7.7 25.6133 8.415 25.2533 9.625 25.2533C10.835 25.2533 11.55 25.5867 12.4438 26.0533C13.475 26.56 14.6025 27.12 16.5 27.12C18.3975 27.12 19.525 26.56 20.5562 26.0533C21.45 25.6133 22.1787 25.2533 23.375 25.2533C24.6125 25.2533 25.3 25.5867 26.1937 26.0533C26.9087 26.4 27.6787 26.7867 28.71 26.9867C28.8958 27.0218 29.0872 27.017 29.2708 26.9725C29.4545 26.9281 29.6258 26.845 29.7727 26.7293C29.9195 26.6136 30.0384 26.468 30.1209 26.3028C30.2034 26.1376 30.2475 25.9569 30.25 25.7733V25.6533C30.25 25.04 29.7825 24.56 29.1637 24.4267C28.5312 24.2933 28.0225 24.04 27.4313 23.7333C26.4 23.2133 25.2313 22.6533 23.375 22.6533ZM23.375 16.72C21.5187 16.72 20.35 17.2933 19.3188 17.7867C18.425 18.2133 17.6962 18.5867 16.5 18.5867C15.2625 18.5867 14.575 18.2533 13.6812 17.7867C12.65 17.28 11.5225 16.72 9.625 16.72C7.7275 16.72 6.6 17.2933 5.56875 17.7867C4.9775 18.0667 4.455 18.3333 3.80875 18.48C3.20375 18.6133 2.75 19.0933 2.75 19.6933V19.8267C2.75008 20.011 2.79252 20.1929 2.87423 20.3593C2.95595 20.5257 3.07488 20.6723 3.22238 20.7885C3.36988 20.9048 3.54224 20.9876 3.72692 21.0311C3.9116 21.0746 4.10396 21.0777 4.29 21.04C5.32125 20.84 6.09125 20.4533 6.80625 20.12C7.7 19.6533 8.3875 19.32 9.625 19.32C10.8625 19.32 11.55 19.6533 12.4438 20.12C13.475 20.6267 14.6025 21.1867 16.5 21.1867C18.3975 21.1867 19.525 20.6133 20.5562 20.12C21.45 19.6533 22.1375 19.32 23.375 19.32C24.6125 19.32 25.3 19.6533 26.1937 20.12C26.9087 20.4667 27.6787 20.8533 28.71 21.0533C28.8969 21.0887 29.0895 21.0836 29.2741 21.0383C29.4587 20.9931 29.6308 20.9089 29.7779 20.7917C29.925 20.6745 30.0437 20.5272 30.1253 20.3604C30.2069 20.1936 30.2495 20.0113 30.25 19.8267V19.7067C30.25 19.0933 29.7825 18.6133 29.1637 18.48C28.5312 18.3467 28.0225 18.0933 27.4313 17.7867C26.4 17.28 25.2313 16.72 23.375 16.72ZM27.4313 5.94667C26.4 5.44 25.2588 4.88 23.375 4.88C21.4912 4.88 20.35 5.44 19.3188 5.94667C18.425 6.37334 17.6962 6.74667 16.5 6.74667C15.2625 6.74667 14.575 6.41334 13.6812 5.94667C12.65 5.45334 11.5225 4.88 9.625 4.88C7.7275 4.88 6.6 5.44 5.56875 5.94667C4.9775 6.24 4.455 6.49334 3.8225 6.64C3.20375 6.77334 2.75 7.25334 2.75 7.85334V7.94667C2.75 8.74667 3.4925 9.33334 4.29 9.17334C5.32125 8.97334 6.09125 8.58667 6.80625 8.25334C7.7 7.81334 8.415 7.45334 9.625 7.45334C10.835 7.45334 11.55 7.78667 12.4438 8.25334C13.475 8.76 14.6025 9.32 16.5 9.32C18.3975 9.32 19.525 8.74667 20.5562 8.25334C21.45 7.82667 22.1787 7.45334 23.375 7.45334C24.6125 7.45334 25.3 7.78667 26.1937 8.25334C26.9087 8.6 27.6787 8.98667 28.71 9.18667C28.8969 9.22203 29.0895 9.21691 29.2741 9.17168C29.4587 9.12644 29.6308 9.04222 29.7779 8.92502C29.925 8.80782 30.0437 8.66054 30.1253 8.49372C30.2069 8.32689 30.2495 8.14465 30.25 7.96V7.84C30.25 7.22667 29.7825 6.74667 29.1637 6.61334C28.5312 6.48 28.0225 6.24 27.4313 5.94667ZM23.375 10.7867C21.5187 10.7867 20.35 11.36 19.3188 11.8533C18.425 12.32 17.7375 12.6533 16.5 12.6533C15.2625 12.6533 14.575 12.32 13.6812 11.8533C12.65 11.3467 11.5225 10.7867 9.625 10.7867C7.7275 10.7867 6.6 11.36 5.56875 11.8533C4.9775 12.16 4.46875 12.4133 3.83625 12.5467C3.2175 12.68 2.75 13.16 2.75 13.7733V13.8933C2.75008 14.0776 2.79252 14.2596 2.87423 14.426C2.95595 14.5924 3.07488 14.739 3.22238 14.8552C3.36988 14.9714 3.54224 15.0543 3.72692 15.0978C3.9116 15.1413 4.10396 15.1443 4.29 15.1067C5.32125 14.9067 6.09125 14.52 6.80625 14.1867C7.7 13.76 8.42875 13.3867 9.625 13.3867C10.8212 13.3867 11.55 13.72 12.4438 14.1867C13.475 14.6933 14.6025 15.2533 16.5 15.2533C18.3975 15.2533 19.525 14.68 20.5562 14.1867C21.45 13.76 22.1787 13.3867 23.375 13.3867C24.6125 13.3867 25.3 13.72 26.1937 14.1867C26.9087 14.5333 27.6787 14.92 28.71 15.12C28.8958 15.1552 29.0872 15.1503 29.2708 15.1059C29.4545 15.0614 29.6258 14.9783 29.7727 14.8626C29.9195 14.7469 30.0384 14.6013 30.1209 14.4361C30.2034 14.2709 30.2475 14.0902 30.25 13.9067V13.7867C30.25 13.1733 29.7825 12.6933 29.1637 12.56C28.5312 12.4267 28.0225 12.1733 27.4313 11.8667C26.4 11.3467 25.2313 10.7867 23.375 10.7867Z" fill="url(#paint0_linear_120_191)"/>
</g>
<defs>
<linearGradient id="paint0_linear_120_191" x1="16.5" y1="4.88" x2="16.5" y2="27.12" gradientUnits="userSpaceOnUse">
<stop stop-color="#00FF66"/>
<stop offset="1" stop-color="#12D25F"/>
</linearGradient>
<clipPath id="clip0_120_191">
<rect width="32" height="32" fill="white"/>
</clipPath>
</defs>
</svg>
